<?xml version="1.0" standalone="no"?><!DOCTYPE svg PUBLIC "-//W3C//DTD SVG 1.1//EN" "http://www.w3.org/Graphics/SVG/1.1/DTD/svg11.dtd"><svg t="1686815201745" class="icon" viewBox="0 0 1024 1024" version="1.1" xmlns="http://www.w3.org/2000/svg" p-id="3134" xmlns:xlink="http://www.w3.org/1999/xlink" width="200" height="200"><path d="M437.802667 637.866667l-103.253334-103.253334a32 32 0 1 1 45.226667-45.226666l80.64 80.64 183.466667-183.466667a32 32 0 0 1 45.226666 45.226667l-205.994666 206.08a31.914667 31.914667 0 0 1-45.226667 0z" fill="#1296db" p-id="3135"></path><path d="M512.042667 970.666667a114.56 114.56 0 0 1-74.666667-26.88l-67.413333-58.026667a65.024 65.024 0 0 0-32.853334-11.946667h-73.386666a114.474667 114.474667 0 0 1-114.346667-114.346666v-72.96a64.256 64.256 0 0 0-11.946667-32.426667l-57.6-67.84a117.290667 117.290667 0 0 1 0-148.053333l57.6-67.84a64.256 64.256 0 0 0 11.946667-32.426667V264.533333a114.474667 114.474667 0 0 1 114.346667-114.346666h73.813333a69.888 69.888 0 0 0 32.853333-11.946667l67.413334-58.026667a116.522667 116.522667 0 0 1 148.864 0l67.413333 58.026667a64.938667 64.938667 0 0 0 32.810667 11.946667h72.533333a114.474667 114.474667 0 0 1 114.346667 114.346666v72.533334a66.432 66.432 0 0 0 12.373333 32.853333l58.112 67.413333a116.650667 116.650667 0 0 1 0 148.906667l-58.026667 67.413333a66.773333 66.773333 0 0 0-12.373333 32.853334v72.533333a114.474667 114.474667 0 0 1-114.346667 114.346667h-72.533333a69.802667 69.802667 0 0 0-32.810667 11.946666l-67.413333 58.026667a112.682667 112.682667 0 0 1-74.709333 27.306667zM263.722667 214.186667a50.389333 50.389333 0 0 0-50.346667 50.346666v72.96a125.269333 125.269333 0 0 1-27.306667 73.813334l-57.6 67.84a53.418667 53.418667 0 0 0 0 65.28l57.6 67.84a127.146667 127.146667 0 0 1 27.306667 73.813333v72.96a50.389333 50.389333 0 0 0 50.346667 50.346667h73.813333a126.464 126.464 0 0 1 74.709333 27.733333l67.370667 58.026667a53.802667 53.802667 0 0 0 65.749333 0l67.413334-58.026667a128.938667 128.938667 0 0 1 74.666666-27.733333h72.533334a50.432 50.432 0 0 0 50.389333-50.346667v-72.533333a126.464 126.464 0 0 1 27.733333-74.666667l58.026667-67.413333a53.76 53.76 0 0 0 0-65.706667l-58.026667-67.413333a126.421333 126.421333 0 0 1-27.733333-74.666667V264.533333a50.432 50.432 0 0 0-50.389333-50.346666h-72.533334a126.464 126.464 0 0 1-74.666666-27.733334l-67.413334-58.026666a53.802667 53.802667 0 0 0-65.749333 0l-67.413333 58.453333a128.682667 128.682667 0 0 1-74.709334 27.306667z" fill="#1296db" p-id="3136"></path></svg>