<svg width="99" height="43" viewBox="0 0 99 43" fill="none" xmlns="http://www.w3.org/2000/svg">
<path d="M18.803 1.56452C20.4708 0.597007 22.5292 0.597007 24.197 1.56452L30.7987 5.39409L37.4161 9.19656C39.0879 10.1572 40.1171 11.9398 40.1132 13.868L40.0975 21.5L40.1132 29.132C40.1171 31.0602 39.0879 32.8428 37.4161 33.8034L30.7987 37.6059L24.197 41.4355C22.5292 42.403 20.4708 42.403 18.803 41.4355L12.2013 37.6059L5.58389 33.8034C3.91206 32.8428 2.88289 31.0602 2.88685 29.132L2.9025 21.5L2.88685 13.868C2.88289 11.9398 3.91206 10.1572 5.58389 9.19655L12.2013 5.39409L18.803 1.56452Z" fill="url(#paint0_linear_1677_2350)"/>
<path d="M18.803 1.56452C20.4708 0.597007 22.5292 0.597007 24.197 1.56452L30.7987 5.39409L37.4161 9.19656C39.0879 10.1572 40.1171 11.9398 40.1132 13.868L40.0975 21.5L40.1132 29.132C40.1171 31.0602 39.0879 32.8428 37.4161 33.8034L30.7987 37.6059L24.197 41.4355C22.5292 42.403 20.4708 42.403 18.803 41.4355L12.2013 37.6059L5.58389 33.8034C3.91206 32.8428 2.88289 31.0602 2.88685 29.132L2.9025 21.5L2.88685 13.868C2.88289 11.9398 3.91206 10.1572 5.58389 9.19655L12.2013 5.39409L18.803 1.56452Z" fill="url(#paint1_radial_1677_2350)" fill-opacity="0.2"/>
<path d="M26.4175 16.9201C26.4311 16.7413 26.5099 16.5738 26.6389 16.4492C26.7679 16.3246 26.9381 16.2517 27.1172 16.2443H29.2111C29.3306 16.2441 29.445 16.1965 29.5295 16.1121C29.6139 16.0276 29.6615 15.9132 29.6617 15.7937V13.4506C29.6615 13.3311 29.6139 13.2166 29.5295 13.1322C29.445 13.0477 29.3306 13.0002 29.2111 13H26.868C26.7486 13.0002 26.6341 13.0477 26.5497 13.1322C26.4652 13.2166 26.4177 13.3311 26.4175 13.4506V15.5399C26.4101 15.7128 26.3427 15.8778 26.2268 16.0064C26.1109 16.135 25.9538 16.2191 25.7825 16.2443H23.6223C23.5028 16.2443 23.3882 16.2918 23.3037 16.3763C23.2192 16.4608 23.1717 16.5754 23.1717 16.6949V18.7834C23.1641 18.9563 23.0966 19.1211 22.9807 19.2496C22.8649 19.3782 22.7079 19.4624 22.5367 19.4878H20.5578C20.3992 19.4647 20.2523 19.3908 20.1392 19.2771C20.0261 19.1635 19.9529 19.0162 19.9306 18.8575V16.6972C19.9306 16.5777 19.8831 16.4631 19.7986 16.3786C19.7141 16.2941 19.5995 16.2466 19.48 16.2466H17.3144C17.1557 16.2235 17.0088 16.1496 16.8958 16.0359C16.7827 15.9223 16.7095 15.775 16.6871 15.6163V13.456C16.6869 13.3365 16.6394 13.2221 16.5549 13.1376C16.4705 13.0531 16.356 13.0056 16.2366 13.0054H13.8935C13.774 13.0056 13.6595 13.0531 13.5751 13.1376C13.4906 13.2221 13.4431 13.3365 13.4429 13.456V15.7991C13.4431 15.9186 13.4906 16.033 13.5751 16.1175C13.6595 16.2019 13.774 16.2495 13.8935 16.2497H15.9766C16.1755 16.2604 16.3622 16.3495 16.4958 16.4974C16.5623 16.5757 16.6124 16.6666 16.6433 16.7647C16.6742 16.8627 16.6851 16.9659 16.6755 17.0683L16.684 17.0606V18.7888C16.6739 18.9672 16.6022 19.1365 16.4811 19.2679C16.3657 19.3887 16.2135 19.468 16.0483 19.4932H13.8881C13.7686 19.4932 13.654 19.5407 13.5695 19.6252C13.485 19.7097 13.4375 19.8243 13.4375 19.9438V28.7686C13.4377 28.888 13.4852 29.0025 13.5697 29.0869C13.6541 29.1714 13.7686 29.2189 13.8881 29.2191H16.2312C16.3506 29.2189 16.4651 29.1714 16.5495 29.0869C16.634 29.0025 16.6815 28.888 16.6817 28.7686V20.1644C16.6941 20.0059 16.7571 19.8555 16.8615 19.7355C16.9955 19.5882 17.1819 19.4993 17.3807 19.4878H19.2177C19.3186 19.4921 19.4175 19.5172 19.5083 19.5614C19.5991 19.6057 19.6798 19.6681 19.7454 19.7449C19.811 19.8217 19.86 19.9112 19.8895 20.0078C19.919 20.1044 19.9282 20.2061 19.9167 20.3064L19.9252 20.2987V22.2807C19.9251 22.3399 19.9367 22.3986 19.9593 22.4533C19.9819 22.508 20.015 22.5577 20.0569 22.5996C20.0988 22.6414 20.1485 22.6746 20.2032 22.6972C20.2579 22.7198 20.3165 22.7314 20.3757 22.7313H22.7181C22.7772 22.7314 22.8359 22.7198 22.8906 22.6972C22.9453 22.6746 22.995 22.6414 23.0369 22.5996C23.0787 22.5577 23.1119 22.508 23.1345 22.4533C23.1571 22.3986 23.1687 22.3399 23.1686 22.2807V20.1644C23.1817 20.0059 23.2449 19.8556 23.3492 19.7355C23.4832 19.5882 23.6696 19.4993 23.8684 19.4878H25.7046C25.9034 19.4991 26.0899 19.5881 26.2238 19.7355C26.2904 19.8138 26.3407 19.9047 26.3717 20.0027C26.4027 20.1008 26.4138 20.204 26.4043 20.3064L26.4121 20.2987V28.7686C26.4123 28.888 26.4598 29.0025 26.5443 29.0869C26.6287 29.1714 26.7432 29.2189 26.8626 29.2191H29.2057C29.3252 29.2189 29.4396 29.1714 29.5241 29.0869C29.6085 29.0025 29.6561 28.888 29.6563 28.7686V19.9384C29.6563 19.8189 29.6088 19.7043 29.5243 19.6198C29.4398 19.5353 29.3252 19.4878 29.2057 19.4878H27.0455C26.8868 19.4646 26.7399 19.3907 26.6267 19.277C26.5135 19.1634 26.4401 19.0162 26.4175 18.8575V16.9201Z" fill="white"/>
<path d="M50.0009 28.7916V14.174C50.0009 13.5986 50.3798 13.2535 51.0364 13.2535H51.7951C52.5023 13.2535 52.7552 13.4144 53.0587 14.0132L57.2797 22.0926L61.4999 14.0116C61.8033 13.4128 62.0562 13.252 62.7386 13.252H63.4467C64.1033 13.252 64.4822 13.5971 64.4822 14.1725V28.7916C64.4868 28.8683 64.4736 28.945 64.4435 29.0167C64.4133 29.0884 64.367 29.1535 64.3073 29.2078C64.2477 29.2621 64.1762 29.3043 64.0975 29.3318C64.0188 29.3592 63.9346 29.3712 63.8504 29.3671H63.1175C63.0333 29.3712 62.9491 29.3592 62.8704 29.3318C62.7917 29.3043 62.7202 29.2621 62.6606 29.2078C62.601 29.1535 62.5546 29.0884 62.5245 29.0167C62.4943 28.945 62.4811 28.8683 62.4857 28.7916V16.1541L58.1644 24.2796C57.9363 24.7168 57.6835 24.9042 57.2291 24.9042C56.8245 24.9042 56.5433 24.7199 56.3187 24.2796L51.9974 16.1541V28.7916C52.002 28.8683 51.9888 28.945 51.9586 29.0167C51.9285 29.0884 51.8821 29.1535 51.8225 29.2078C51.7629 29.2621 51.6914 29.3043 51.6127 29.3318C51.534 29.3592 51.4498 29.3712 51.3656 29.3671H50.6327C50.5485 29.3712 50.4643 29.3592 50.3856 29.3318C50.3069 29.3043 50.2354 29.2621 50.1758 29.2078C50.1162 29.1535 50.0698 29.0884 50.0396 29.0167C50.0095 28.945 49.9963 28.8683 50.0009 28.7916Z" fill="#FBFAFF"/>
<path d="M68.8542 28.9283C68.8542 28.7206 68.9305 28.5832 69.1834 28.2373L74.1117 21.2392L69.2589 14.3794C69.0017 14.0343 68.9305 13.8961 68.9305 13.6892C68.9305 13.4128 69.1328 13.252 69.5117 13.252H70.321C70.801 13.252 71.0068 13.3902 71.2811 13.7813L75.527 19.9041L79.7729 13.7813C80.0506 13.3909 80.2529 13.252 80.7081 13.252H81.4917C81.8457 13.252 82.048 13.4128 82.048 13.6892C82.048 13.8961 81.9717 14.0343 81.7445 14.3794L76.8917 21.2392L81.82 28.2373C82.048 28.5832 82.1234 28.7206 82.1234 28.9283C82.1234 29.2047 81.9211 29.3655 81.5671 29.3655H80.7373C80.2572 29.3655 80.0806 29.2273 79.8029 28.8361L75.4516 22.5986L71.1294 28.8369C70.8516 29.2273 70.6493 29.3663 70.1941 29.3663H69.4363C69.0566 29.3655 68.8542 29.2047 68.8542 28.9283Z" fill="#FBFAFF"/>
<path d="M85.6362 24.1189V18.5021C85.6362 14.9574 87.9611 13 92.0055 13C96.1751 13 98.1716 14.6349 98.1716 18.0875V18.5942C98.1716 18.8933 97.9951 19.0549 97.6916 19.0549H96.5549C96.2514 19.0549 96.074 18.8933 96.074 18.6169V18.0875C96.074 15.671 94.861 14.5889 92.0055 14.5889C89.2752 14.5889 87.805 15.9006 87.805 18.3639V24.2571C87.805 26.7197 89.2709 28.0322 91.9755 28.0322C94.8567 28.0322 96.0697 26.95 96.0697 24.5101V23.8426C96.0697 23.5662 96.2471 23.4053 96.5506 23.4053H97.6873C97.9908 23.4053 98.1674 23.5662 98.1674 23.866V24.5101C98.1674 27.9861 96.146 29.6203 91.9755 29.6203C87.9611 29.6203 85.6362 27.6636 85.6362 24.1189Z" fill="#FBFAFF"/>
<defs>
<linearGradient id="paint0_linear_1677_2350" x1="11.1572" y1="-3.74621" x2="26.4678" y2="40.5568" gradientUnits="userSpaceOnUse">
<stop stop-color="#0049FF"/>
<stop offset="0.421875" stop-color="#6300FF"/>
<stop offset="0.890604" stop-color="#F43178"/>
</linearGradient>
<radialGradient id="paint1_radial_1677_2350" cx="0" cy="0" r="1" gradientUnits="userSpaceOnUse" gradientTransform="translate(21.5 43) rotate(-87.4969) scale(44.7529)">
<stop offset="0.294693" stop-color="#F43178"/>
<stop offset="0.723056" stop-opacity="0"/>
</radialGradient>
</defs>
</svg>
